<?xml version="1.0" encoding="UTF-8"?>
<svg id="Camada_1" xmlns="http://www.w3.org/2000/svg" version="1.1" viewBox="0 0 640 640">
  <!-- Generator: Adobe Illustrator 30.3.0, SVG Export Plug-In . SVG Version: 2.1.3 Build 182)  -->
  <path d="M494.6,312.6h-155c-15.6,0-28.2-12.6-28.2-28.2v-155c0-15.6,12.7-28.4,28.1-26.3,94.2,12.5,168.9,87.2,181.4,181.4,2,15.4-10.7,28.1-26.3,28.1ZM254.6,101.2c18.1-3.8,33.8,11,33.8,29.5v197.3c0,5.6,2,11,5.5,15.3l132.1,159.4c11.7,14.1,9.2,35.4-6.9,44.1-34.1,18.6-73.2,29.2-114.7,29.2-132.5,0-240-107.5-240-240S145.9,124.1,254.6,101.2ZM464.1,354.9h56.4c16.3,0,29.3,13.8,26,29.8-9,42.6-30.8,80.5-61.3,109.4-10.8,10.3-27.8,8.1-37.3-3.4l-74.3-89.6c-15.2-18.4-2.1-46.2,21.7-46.2h69Z"/>
</svg>