<svg width="922" height="300" viewBox="0 0 922 300" fill="none" xmlns="http://www.w3.org/2000/svg">
<path d="M60 60H86.7573V83.58H60V60Z" fill="#F86A04"/>
<path d="M134.59 83.6684H104.531V60H162.698V154.245L162.59 156.211C162.409 162.682 160.892 168.939 158.11 174.767C155.075 181.131 150.667 186.672 145.103 191.32C139.612 195.897 133.145 199.4 125.847 201.581C118.621 203.691 115.298 204.048 107.711 203.691C100.124 203.333 93.0425 200.795 86.5393 197.327C80.0362 193.823 74.5086 189.211 70.1009 183.562C65.6933 177.913 62.6946 171.62 61.1411 164.863C59.8405 159 59.6237 153.029 60.6353 147.094L88.2374 152.636C87.9845 154.995 88.1651 157.391 88.6709 159.679C89.4296 162.897 90.8747 165.9 92.9702 168.653C94.9934 171.334 97.6669 173.515 100.81 175.196C107.53 178.628 113.708 178.235 117.104 177.198C120.392 176.197 123.571 174.516 126.208 172.335C128.918 170.119 131.013 167.437 132.422 164.434C133.687 161.717 134.482 158.678 134.59 155.424V83.6684Z" fill="#232C34"/>
<path d="M276.141 201.331H180.69V60H276.141V83.8829H207.678V118.706H276.141V142.41H207.678V177.412H276.141V201.331Z" fill="#232C34"/>
<path d="M358.911 97.3975L335.464 132.221L316.28 103.011C313.967 99.5069 309.993 97.3617 305.802 97.3617H283.511L319.712 148.846L283.692 201.26H312.558L335.644 165.864L355.226 195.646C357.538 199.15 361.512 201.295 365.703 201.295H388.175L351.396 148.882L388.356 97.3975H358.911Z" fill="#232C34"/>
<path fill-rule="evenodd" clip-rule="evenodd" d="M453.424 95.3953C462.565 95.3953 470.622 97.6835 477.631 102.26V102.331C484.639 106.908 490.095 113.307 493.961 121.602C497.862 129.754 499.777 139.085 499.777 149.561C499.777 160.036 497.826 169.404 493.961 177.698C490.059 185.814 484.639 192.214 477.631 196.755C470.622 201.295 462.565 203.583 453.424 203.583C446.921 203.583 441.285 202.475 436.516 200.223C434.276 199.114 432.145 197.577 430.049 195.682C427.809 193.68 423.582 195.074 423.582 198.077V238.8H398.256V97.469H423.582V110.626C427.737 104.941 432.109 101.008 436.733 98.7561C441.358 96.5036 446.921 95.3953 453.424 95.3953ZM425.606 149.561C425.606 166.615 436.805 180.416 450.606 180.416C464.408 180.416 475.607 166.615 475.607 149.561C475.607 132.507 464.408 118.706 450.606 118.706C436.805 118.706 425.606 132.507 425.606 149.561Z" fill="#232C34"/>
<path d="M856.075 152.421C852.209 148.238 847.512 145.271 842.021 143.554C836.638 141.695 829.629 139.979 820.994 138.37C812.612 136.761 806.471 135.153 802.641 133.544C798.775 131.935 796.824 129.218 796.824 125.392C796.824 122.174 798.269 119.636 801.124 117.812C804.122 115.846 808.133 114.845 813.154 114.845C818.682 114.845 823.415 116.168 827.389 118.742C831.399 121.209 834.073 125.178 835.446 130.612H859.254C857.376 119.386 852.354 110.662 844.044 104.477C835.915 98.2913 825.655 95.2166 813.299 95.2166C800.943 95.2166 791.802 97.8623 784.035 103.154C776.412 108.338 772.582 116.061 772.582 126.322C772.582 133.472 774.461 139.157 778.218 143.34C782.012 147.416 786.528 150.348 791.911 152.207C797.294 154.066 804.05 155.782 812.179 157.391C820.669 159 826.919 160.716 830.929 162.575C835.048 164.434 837.144 167.473 837.144 171.656C837.144 175.446 835.41 178.449 831.905 180.523C828.509 182.597 824.065 183.705 818.574 183.705C812.07 183.705 806.615 182.203 802.244 179.272C797.872 176.161 794.873 171.871 793.248 166.293H768.283C769.909 178.664 775.472 187.888 784.938 194.073C794.44 200.258 805.676 203.333 818.682 203.333C831.688 203.333 842.744 200.294 850.367 194.252C858.134 188.21 862 180.058 862 169.797C862 162.396 859.977 156.568 856.003 152.421H856.075Z" fill="#232C34"/>
<path d="M713.584 60H738.874V97.469H759.142V117.491H738.874V171.013C738.874 174.195 739.416 176.59 740.391 178.199C741.511 179.844 743.896 180.63 747.508 180.63H758.961V201.367H738.151C721.785 201.367 713.584 193.751 713.584 178.556V117.419H698.012V97.3975H713.584V60Z" fill="#232C34"/>
<path d="M667.701 98.5058C662.932 100.794 658.632 104.548 654.767 109.84V97.3975H629.441V201.295H654.767V153.136C654.767 146.343 655.453 140.766 656.862 136.44C658.235 132.006 660.367 128.324 663.257 125.499C667.737 121.316 673.987 119.207 682.007 119.207H687.824V95.1451H684.789C678.286 95.1451 672.578 96.2534 667.737 98.5058H667.701Z" fill="#232C34"/>
<path fill-rule="evenodd" clip-rule="evenodd" d="M589.653 101.057C581.646 97.1394 572.919 95.1808 563.436 95.1808C551.947 95.1808 542.192 97.7908 534.172 102.939C526.296 108.123 520.335 114.916 516.36 123.318C512.495 131.613 510.544 140.48 510.544 149.99C510.544 160.215 512.748 169.439 517.083 177.555C521.599 185.564 527.885 191.892 536.014 196.433C544.143 200.974 553.5 203.262 564.158 203.262C577.417 203.262 588.292 199.865 596.782 193.072C605.272 186.172 611.234 177.198 614.593 166.186H588.689C586.955 170.727 583.993 174.516 579.874 177.484C575.755 180.308 570.806 181.738 565.062 181.738C559.678 181.738 554.873 180.416 550.61 177.841C546.492 175.124 543.168 171.334 540.675 166.544C538.399 162.754 537.134 158.642 536.737 154.316H616.255V148.953C616.255 136.976 613.799 126.965 608.957 118.956C604.08 110.805 597.649 104.798 589.629 101.009L589.653 101.057ZM542.084 126.143C539.844 128.86 538.471 132.078 537.965 135.76H590.424C589.918 131.827 588.617 128.61 586.486 126.143C584.137 122.532 580.994 119.85 577.128 117.991C573.263 115.989 568.927 115.024 564.194 115.024C559.462 115.024 555.126 115.953 551.26 117.812C547.539 119.636 544.468 122.46 542.084 126.143Z" fill="#232C34"/>
</svg>
