<?xml version="1.0" encoding="UTF-8"?>
<svg id="Camada_1" data-name="Camada 1" xmlns="http://www.w3.org/2000/svg" width="640" height="640" viewBox="0 0 640 640">
  <path d="M594.789,393.155l-52.732-48.241c.903-7.388,1.509-14.98,1.617-22.68.107-7.699-.186-15.304-.983-22.716l53.956-46.652c11.54-9.94,14.471-26.501,7.056-39.805l-29.174-52.212c-7.415-13.305-23.13-19.525-37.595-14.926l-68.107,21.552c-11.872-9.267-24.963-17.15-38.978-23.346l-13.522-70.195c-2.793-14.84-15.743-25.722-30.941-25.934l-31.197-.435-.211,193.635c43.688.385,78.204,35.988,78.403,79.826.2,44.2-33.578,80.322-77.778,80.522l-.003-.315c-.265.004-.53.008-.796.011l-.207,190.365,24.398.34c15.099.211,28.345-10.205,31.653-25.061l15.374-69.692c14.084-5.904,27.388-13.319,39.614-22.249l67.479,23.444c14.332,5,30.215-.878,37.997-13.871l30.62-51.378c7.682-12.994,5.315-29.729-5.943-39.987Z"/>
  <g>
    <path d="M332.269,506.594h-98.453c-25.137,0-45.588,19.255-45.588,42.921s20.451,42.92,45.588,42.92h99.71"/>
    <path d="M332.343,285.938l-254.527-.143c-25.137,0-45.588,19.255-45.588,42.922s20.451,42.92,45.588,42.92l254.527-.113"/>
    <path d="M332.343,167.076l-190.527.039c-25.137,0-45.588,19.254-45.588,42.921s20.451,42.921,45.588,42.921l190.527.274"/>
    <path d="M332.491,48.436h-98.676c-25.137,0-45.588,19.254-45.588,42.921s20.451,42.921,45.588,42.921h98.676"/>
    <path d="M332.713,396.195h-190.898c-25.137,0-45.588,19.255-45.588,42.921s20.451,42.92,45.588,42.92h190.75"/>
  </g>
</svg>